<svg xmlns="http://www.w3.org/2000/svg" version="1.1" xmlns:xlink="http://www.w3.org/1999/xlink" xmlns:svgjs="http://svgjs.dev/svgjs" width="1000" height="1000"><g clip-path="url(#SvgjsClipPath1233)"><rect width="1000" height="1000" fill="#080a25"></rect><g transform="matrix(0.9765625,0,0,0.9765625,0,0)"><svg xmlns="http://www.w3.org/2000/svg" version="1.1" xmlns:xlink="http://www.w3.org/1999/xlink" xmlns:svgjs="http://svgjs.dev/svgjs" width="1024" height="1024"><svg xmlns="http://www.w3.org/2000/svg" version="1.2" viewBox="0 0 1024 1024" width="1024" height="1024">
  <defs>
    <linearGradient id="gradient1" x1="0%" y1="0%" x2="100%" y2="0%">
      <stop offset="0%" style="stop-color:rgb(59, 130, 246);stop-opacity:1"></stop> <!-- Blue-400 -->
      <stop offset="100%" style="stop-color:rgb(129, 140, 248);stop-opacity:1"></stop> <!-- Purple-600 -->
    </linearGradient>
  <clipPath id="SvgjsClipPath1233"><rect width="1000" height="1000" x="0" y="0" rx="300" ry="300"></rect></clipPath></defs>
  <style>
    .a, .b, .c, .d, .e, .f {
      fill: url(#gradient1);
    }
  </style>
  <path class="a" d="m288.9 470c0.2-0.4 0.4-0.8 0.7-1.9 2.5-13.9 3.7-27.5 7.2-40.4 4.1-14.5 10.2-28.4 15.5-42.6 0.3-0.5 0.6-0.9 1.2-1.9 18.9-36.3 45-65.3 79.2-86.6 11.9-7.4 24.9-13 37.4-19.4 0.8-0.2 1.6-0.4 3-0.9 2.1-0.8 3.5-1.4 5-2q4.1-1 8.3-2.1 4.1-1 8.2-2 4.1-1 8.2-2 4.2-1.1 8.3-2.1c15.4-1.1 30-2.4 44.7-2.8 7-0.3 14.1 1 21.2 1.6 0.7 0.2 1.4 0.4 2.8 0.8 36.9 5.9 69.5 20 98.6 42.2 19.8 15 36.7 32.7 51 53 0.2 0.2 0.5 0.3 1 0.6 3.2 5.7 6.5 11 9.4 16.5 14 26.6 23 54.6 26.4 84.6 1.9 16.4 1.8 32.7-0.5 48.9-2 13.4-5.1 26.7-8.9 39.7-5.7 19.7-14.6 38-26.9 54.5-5.3 7.1-15 7.7-21.1 1.5-5.5-5.5-10.5-11.3-15.9-16.8-20.4-20.3-40.8-40.6-61.3-60.9-18.3-18-36.7-35.8-55.1-53.7-3.2-3.1-6.9-5.8-10-9-3.7-3.9-6.7-8.5-10.6-12.3-6.7-6.6-10.6-6.8-17.2-0.5-11.5 11.1-22.6 22.5-33.9 33.7-5.3 5.3-10.6 10.5-15.8 15.8-5.5 5.6-10.9 11.4-16.3 17.2 0 0 0 0-0.3 0.1-3.1 3.1-6 6-9 9q-3.9 3.9-7.7 7.8-3.8 3.8-7.6 7.7-3.9 3.9-7.7 7.8-3.8 3.9-7.5 7.8c0 0-0.1-0.1-0.4 0-14.7 14.9-29.1 29.6-43.5 44.4-8.7 8.8-17.2 8.1-24.5-2-0.6-1-1.2-2-1.8-2.9-23.3-36.4-33.6-76.5-33.9-119.4 0.1-0.8 0.1-1.5 0.2-3.1 0-3.2 0-5.5-0.1-7.9zm40.1-70.4c-28 63-25.8 124.4 8.7 185.1 1.3-1.3 1.8-1.7 2.3-2.2q60.2-60.3 120.5-120.5c9.9-9.9 19.7-19.9 29.8-29.5 10.6-10.1 23.2-10.1 34-0.4 3.3 2.9 6.4 6.2 9.6 9.4 37.9 37.6 76 75.2 113.8 113 10 9.9 19.6 20.3 29.5 30.7 1.5-1.6 2-2 2.3-2.6 1.3-1.9 2.6-3.9 3.7-5.9 15.5-27.4 22.6-57.2 23.5-88.3 0.4-13.8-1.1-28-4-41.5-14-64.9-51.1-112.6-110.3-142.5-38-19.2-78.5-26-120.5-17-65.4 14-113 51.4-142.9 112.2z"></path>
    <path class="b" d="m468.4 583.1c0.5-0.3 1-0.7 2-1.5q0.5-0.5 1-1 0.5-0.5 1-1 0.5-0.5 1.1-1 0.5-0.5 1-1c0.3-0.3 0-0.1 0.3-0.3 3.6-3.5 6.6-7.1 10.2-10 4.2-3.4 8.4-7 13.3-9.2 9.1-4 17.6-0.8 25.6 4 0 0-0.1 0 0 0.3 0.4 0.4 0.7 0.5 1.1 1 6.8 6.8 13.3 13.2 20 20.1 4.1 4 8 7.8 12.1 11.8 3.1 3.1 6 5.9 9 9.1 5.9 5.8 11.8 11.3 17.7 17 7.2 7.1 14.2 13.9 21.2 21 0.4 0.4 0.7 0.5 1 0.6 0 0-0.1 0.1 0 0.3 0.7 0.9 1.4 1.5 2.1 2.3 0.1 0.2 0.5 0.4 0.6 0.6 0.5 0.5 0.8 0.8 1.3 1.3 0.6 0.7 1.2 1.1 1.9 1.9 13.7 11.7 8.8 22.9-3.9 28-5.9 2.4-11.5 5.4-17.4 8.1-24.5 11.2-50.6 15.9-77.2 17.2-13.7 0.7-27.6-1.2-41.2-3.1-23.9-3.2-46.2-11.4-67.1-23.1-10.5-5.9-14.1-16.2-3.4-26.1 7-6.3 13.2-13.5 19.8-20.3 0 0 0.4-0.2 0.7-0.5 6.1-6.1 11.8-11.8 17.6-17.6 9.5-9.6 19-19.2 28.6-28.9zm-0.5 32.3l-45.5 45.5c37.6 27 134.9 26.9 169.9 0.2-1.2-1.4-2.4-2.8-3.6-4q-9.2-9.2-18.4-18.3-9.2-9.1-18.4-18.3-9.2-9.1-18.4-18.2-9.2-9.1-18.4-18.3c-5.5-5.4-10.7-5.3-16.9 0.8-10 9.9-19.9 20-30.3 30.6z"></path>
    <path class="c" d="m662.4 257.2c4.8-2.9 9.1-2.8 13.1 0.6 3.6 3 5.4 6.8 4.3 11.5-1 4.5-3.7 7.7-8.5 8.6-5 1-9.7-1-12.5-5.1-2.8-4.2-1.9-8.2 0.3-12.1 0.7-1.3 2-2.2 3.3-3.5zm-323.5 34.4c-5.7-3.4-8-7.6-7.2-12.7 0.7-4.9 4.2-8.7 9.4-9.6 4.8-0.7 8.8 1.2 11.5 5.3 2.5 3.8 2.7 8.3 0.1 11.7-2 2.6-5.8 4.1-9 5.7-1.2 0.6-2.9-0.1-4.8-0.4z"></path>
    <path class="d" d="m396.3 235.6c1 2 2.4 3.9 2.2 5.6-0.2 1.1-2.7 2.6-4.1 2.5-1.4 0-3.2-1.5-3.9-2.9-1.5-2.9 1.1-5.4 5.8-5.2z"></path>
    <path class="e" d="m626.1 629.7c0.1-0.3 0-0.6-0.5-0.8-20.1-19.8-40.2-39.4-60.1-59.2-16.7-16.5-33.3-33.2-50-49.7-6-5.9-11-6-16.9-0.2-12.2 11.8-24.1 23.9-36.2 35.8-18 17.9-36.1 35.6-54 53.5-10.6 10.7-20.9 21.7-31.5 32.4-6.9 7-16.1 4.9-19.2-4.2-1.6-4.6 0.8-8.2 3.5-11.3 2.5-3.1 5.6-5.6 8.5-8.7 0.1-0.3 0.4-0.4 0.8-0.7 4.6-4.7 8.8-9 13.1-13.3 0.1-0.1 0.2-0.2 0.8-0.6 3.4-3.5 6.5-6.6 9.5-9.7 0.7-0.7 1.4-1.3 2.5-2.4 9.6-9.6 18.7-18.8 27.8-28 1-0.9 2-1.9 3.5-3.2 1.9-2 3.5-3.6 5-5.2 0.4-0.4 0.9-0.7 1.8-1.5q0.8-0.8 1.5-1.6 0.8-0.8 1.6-1.6 0.7-0.9 1.5-1.7 0.8-0.8 1.5-1.6c0.8-0.6 1.5-1.2 2.6-2.2q0.7-0.7 1.4-1.4 0.7-0.7 1.4-1.5 0.6-0.7 1.3-1.4 0.7-0.7 1.4-1.5c0.4-0.5 0.3 0 0.5-0.2 0.4-0.4 0.6-0.7 0.7-1 0 0 0.3-0.1 0.6-0.4 1.5-1.5 2.5-2.8 3.6-4 0.4 0 0.6-0.1 1.2-0.7 0.7-0.8 1.1-1.3 1.4-1.7q0.2-0.3 0.5-0.5 0.2-0.2 0.5-0.4 0.2-0.2 0.5-0.4 0.2-0.2 0.5-0.4 0.2-0.3 0.4-0.5 0.2-0.2 0.4-0.4 0.2-0.3 0.4-0.5 0.2-0.2 0.4-0.5 0.7-0.7 1.5-1.4 0.8-0.8 1.5-1.5 0.8-0.7 1.6-1.4 0.8-0.8 1.5-1.5c1.1-1.2 1.8-2 2.5-2.8 0.6-0.5 1.3-1 2.3-1.9q0.2-0.2 0.4-0.5 0.3-0.2 0.5-0.5 0.2-0.3 0.4-0.5 0.3-0.3 0.5-0.6c0.5-0.4 0.9-0.7 1.8-1.5 2.4-2.5 4.3-4.5 6.2-6.5 0.3-0.1 0.6-0.3 1.3-0.9 2.5-2.6 4.6-4.8 6.7-7.1 0.9-0.6 1.7-1.2 2.5-2.2-0.1-0.4 0-0.4 0-0.4 2-0.8 3.9-1.5 6.5-2.4 1-0.3 1.5-0.6 2-0.9 2.7-0.2 5.4-0.4 8.8-0.5 5.9 2.2 11 4.3 16.3 6.7 5.8 6 11.6 11.6 17.3 17.1 0 0 0 0.1 0 0.1q30.7 30.3 61.4 60.6c16.8 16.5 33.6 33.1 50.4 49.7 5.4 5.3 5.4 12 0.4 17.1-4.1 4.1-11.2 3.9-15.2-0.3-1.8-2-3.8-3.8-6-5.8-0.2-0.5-0.4-0.7-1-1.2q-0.3-0.2-0.6-0.4-0.2-0.3-0.5-0.5-0.3-0.3-0.5-0.5-0.3-0.2-0.6-0.5c-0.2-0.1-0.1 0.1-0.1-0.2-1.4-1.5-2.7-2.7-4-3.8z"></path>
    <path class="e" d="m526.4 332.8c6.8 12 1 24.4-7.9 29.6-9.2 5.3-21.2 2.9-27.6-5.5-7.4-9.8-5.9-23.2 3.3-30 11-8.1 24-5.8 32.2 5.9z"></path>
    <path class="c" d="m371.9 442.2c3.1 7.7 0.4 14.9-5.8 16.8-8 2.5-14.1-0.7-16.4-8.7-1.3-4.2 0.6-9.5 4.4-12.1 4.5-3.2 10.5-3.1 14.7 0.3 1.2 1 2 2.3 3.1 3.7z"></path>
    <path class="f" d="m572 407c0.4-4.8 2.4-8.6 6.8-8.9 3-0.2 6.8 1.1 9.2 3 3.3 2.6 3.5 7.1 0.9 10.3-1.9 2.3-5.3 4.6-7.9 4.6-2.7-0.1-5.4-3-7.8-5-0.9-0.6-0.8-2.4-1.2-4zm88.7 32.1c3.4 2.8 5.7 6.2 4 10.1-1.1 2.4-3.8 4.7-6.3 5.6-3.7 1.3-7.1-0.3-9.2-3.9-1.8-3.2-1.9-6.3 0.6-9.2 2.9-3.4 6.2-4.9 10.9-2.6z"></path>
    <path class="d" d="m399.1 362.1c1.3 5-0.2 8.3-4.3 9.9-3.7 1.5-7.8-0.2-9.6-3.9-1.6-3.4-0.1-7.9 3.3-9.8 3.7-2.1 7.2-1 10.6 3.8zm43.1 37.4c-0.4-3.9 1.4-6.6 4.7-6.3 2.1 0.2 4.9 2.5 5.7 4.6 0.6 1.3-1.6 4.6-3.3 5.6-3.3 1.8-5.4-0.7-7.1-3.9zm178-27.5c-1.6-1.9-3.4-3.7-3.7-5.8-0.1-0.9 3-3.5 3.9-3.2 1.8 0.6 4.4 2.8 4.3 4.2-0.1 1.7-2.7 3.2-4.5 4.8z"></path>
</svg></svg></g></g></svg>